<svg xmlns="http://www.w3.org/2000/svg"  viewBox="0 0 64 64" width="64px" height="64px"><radialGradient id="Z0o0Hd682z0ISOiS2MUVba" cx="32" cy="622.5" r="31.259" gradientTransform="matrix(1 0 0 -1 0 654)" gradientUnits="userSpaceOnUse"><stop offset="0" stop-color="#c5f1ff"/><stop offset=".35" stop-color="#cdf3ff"/><stop offset=".907" stop-color="#e4faff"/><stop offset="1" stop-color="#e9fbff"/></radialGradient><path fill="url(#Z0o0Hd682z0ISOiS2MUVba)" d="M58,54c-1.105,0-2-0.895-2-2s0.895-2,2-2h2.5c1.925,0,3.5-1.575,3.5-3.5S62.425,43,60.5,43H50	c-1.381,0-2.5-1.119-2.5-2.5S48.619,38,50,38h8c1.65,0,3-1.35,3-3s-1.35-3-3-3H42v-6h18c2.335,0,4.22-2.028,3.979-4.41	C63.77,19.514,61.897,18,59.811,18H58c-1.105,0-2-0.895-2-2s0.895-2,2-2h0.357c1.308,0,2.499-0.941,2.63-2.242	C61.137,10.261,59.966,9,58.5,9h-14C43.672,9,43,8.328,43,7.5S43.672,6,44.5,6h3.857c1.308,0,2.499-0.941,2.63-2.242	C51.137,2.261,49.966,1,48.5,1H15.643c-1.308,0-2.499,0.941-2.63,2.242C12.863,4.739,14.034,6,15.5,6H19c1.105,0,2,0.895,2,2	s-0.895,2-2,2H6.189c-2.086,0-3.958,1.514-4.168,3.59C1.78,15.972,3.665,18,6,18h2.5c1.933,0,3.5,1.567,3.5,3.5S10.433,25,8.5,25	H5.189c-2.086,0-3.958,1.514-4.168,3.59C0.78,30.972,2.665,33,5,33h17v11H6c-1.65,0-3,1.35-3,3s1.35,3,3,3l0,0c1.105,0,2,0.895,2,2	s-0.895,2-2,2H4.189c-2.086,0-3.958,1.514-4.168,3.59C-0.22,59.972,1.665,62,4,62h53.811c2.086,0,3.958-1.514,4.168-3.59	C62.22,56.028,60.335,54,58,54z"/><linearGradient id="Z0o0Hd682z0ISOiS2MUVbb" x1="32" x2="32" y1="59.085" y2="2.012" gradientUnits="userSpaceOnUse"><stop offset="0" stop-color="#dbdee1"/><stop offset=".085" stop-color="#dee1e4"/><stop offset=".606" stop-color="#eff1f2"/><stop offset="1" stop-color="#f5f6f7"/></linearGradient><path fill="url(#Z0o0Hd682z0ISOiS2MUVbb)" d="M50,12H14c-2.209,0-4,1.791-4,4v36c0,2.209,1.791,4,4,4h36c2.209,0,4-1.791,4-4V16	C54,13.791,52.209,12,50,12z"/><linearGradient id="Z0o0Hd682z0ISOiS2MUVbc" x1="36.372" x2="36.372" y1="12.106" y2="73.12" gradientUnits="userSpaceOnUse"><stop offset="0" stop-color="#7ddefb"/><stop offset="1" stop-color="#3cb5ea"/></linearGradient><path fill="url(#Z0o0Hd682z0ISOiS2MUVbc)" d="M49.979,12H35.01L18.744,56h31.235C52.2,56,54,54.2,54,51.979V16.021	C54,13.8,52.2,12,49.979,12z"/><linearGradient id="Z0o0Hd682z0ISOiS2MUVbd" x1="43.998" x2="43.998" y1="32.702" y2="45.509" gradientUnits="userSpaceOnUse"><stop offset="0" stop-color="#96e5fc"/><stop offset="1" stop-color="#75d0f3"/></linearGradient><path fill="url(#Z0o0Hd682z0ISOiS2MUVbd)" d="M42.985,43c-0.719,0-1.425,0.363-1.743,1.009C40.498,45.523,41.585,47,43,47	c0.55,0,1.05,0.22,1.41,0.59C44.78,47.95,45,48.45,45,49s-0.22,1.05-0.59,1.41C44.05,50.78,43.55,51,43,51l-6.495,0	c-0.991,0-1.942,0.559-2.307,1.48C33.481,54.288,34.787,56,36.5,56h13.543C52.228,56,54,54.228,54,52.043V43H42.985z"/><path fill="#fafafa" d="M32.416,33.839v4.113h-1.305V27.796h3.46c0.834-0.017,1.641,0.299,2.241,0.879 c0.607,0.546,0.948,1.327,0.936,2.143c0.017,0.821-0.324,1.608-0.936,2.156c-0.605,0.577-1.352,0.865-2.241,0.865L32.416,33.839 L32.416,33.839z M32.416,29.046v3.545h2.188c0.485,0.014,0.954-0.176,1.291-0.525c0.685-0.666,0.701-1.762,0.034-2.448 c-0.011-0.012-0.023-0.023-0.034-0.034c-0.333-0.356-0.803-0.553-1.291-0.539L32.416,29.046L32.416,29.046z"/><path fill="#fafafa" d="M40.754,30.776c0.964,0,1.725,0.258,2.284,0.773c0.558,0.515,0.837,1.222,0.836,2.12v4.283h-1.248 v-0.964H42.57c-0.54,0.794-1.259,1.191-2.156,1.191c-0.766,0-1.406-0.227-1.921-0.681c-0.501-0.422-0.785-1.047-0.773-1.702 c0-0.719,0.272-1.291,0.815-1.716s1.269-0.637,2.177-0.639c0.775,0,1.413,0.142,1.914,0.425v-0.298 c0.003-0.446-0.195-0.87-0.539-1.155c-0.345-0.311-0.795-0.481-1.259-0.476c-0.729,0-1.305,0.307-1.73,0.922l-1.149-0.724 C38.58,31.23,39.516,30.776,40.754,30.776z M39.066,35.825c-0.002,0.337,0.159,0.654,0.433,0.851 c0.289,0.227,0.647,0.347,1.014,0.34c0.551-0.001,1.078-0.22,1.468-0.609c0.432-0.407,0.648-0.884,0.648-1.432 c-0.407-0.324-0.974-0.486-1.702-0.486c-0.53,0-0.972,0.128-1.326,0.383C39.244,35.131,39.066,35.446,39.066,35.825L39.066,35.825z"/><path fill="#fafafa" d="M51.038,31.003l-4.356,10.012h-1.347l1.617-3.503l-2.865-6.509h1.418l2.07,4.992h0.028l2.014-4.992 H51.038z"/><path fill="#4285f4" d="M23.766,32.953c0-0.398-0.033-0.795-0.1-1.186h-5.502v2.247h3.151 c-0.13,0.725-0.551,1.366-1.165,1.773v1.459h1.881C23.132,36.23,23.766,34.728,23.766,32.953z"/><path fill="#34a853" d="M18.164,38.654c1.575,0,2.9-0.517,3.867-1.408l-1.881-1.459c-0.523,0.355-1.198,0.558-1.986,0.558 c-1.522,0-2.814-1.026-3.275-2.408h-1.938v1.503C13.941,37.41,15.958,38.654,18.164,38.654z"/><path fill="#fbbc04" d="M14.888,33.937c-0.244-0.724-0.244-1.509,0-2.233V30.2h-1.938c-0.828,1.648-0.828,3.591,0,5.24 L14.888,33.937z"/><path fill="#ea4335" d="M18.164,29.295c0.832-0.014,1.636,0.301,2.238,0.875l0,0l1.665-1.665 c-1.056-0.992-2.455-1.536-3.903-1.519c-2.206,0-4.223,1.244-5.213,3.215l1.938,1.503C15.35,30.321,16.642,29.295,18.164,29.295z"/><linearGradient id="Z0o0Hd682z0ISOiS2MUVbe" x1="18" x2="18" y1="-8.506" y2="43.928" gradientUnits="userSpaceOnUse"><stop offset="0" stop-color="#fff"/><stop offset="1" stop-color="#f5f6f7"/></linearGradient><path fill="url(#Z0o0Hd682z0ISOiS2MUVbe)" d="M25.771,13.446C25.388,12.547,24.459,12,23.482,12l-5.06,0h-4.435	C11.785,12,10,13.785,10,15.987v7.804l9.689,0c0.83,0,1.624-0.469,1.932-1.239c0.61-1.526-0.491-2.972-1.936-2.972h-1.684	c-0.699,0-1.263-0.564-1.263-1.263c0-0.699,0.564-1.263,1.263-1.263h5.474C25.22,17.053,26.553,15.279,25.771,13.446z"/></svg>